<svg viewBox="0 0 512 512" xmlns="http://www.w3.org/2000/svg"><path d="M496 230.177c0-26.467-21.533-48-48-48h-72V48c0-26.467-21.533-48-48-48H144c-26.467 0-48 21.533-48 48v134.177H48c-26.467 0-48 21.533-48 48v224c0 26.467 21.533 48 48 48h416c26.467 0 48-21.533 48-48v-224zM160 48c0-8.837 7.163-16 16-16h160c8.837 0 16 7.163 16 16v134.177H160V48zm288 416H48c-8.837 0-16-7.163-16-16v-224c0-8.837 7.163-16 16-16h48v160c0 8.837 7.163 16 16 16h320c8.837 0 16-7.163 16-16V224h48c8.837 0 16 7.163 16 16v224c0 8.837-7.163 16-16 16zM128 224v-16h64v16h-64zm0 64v-16h64v16h-64zm0 64v-16h64v16h-64z" fill="#000"/></svg>